<?xml version="1.0" standalone="no"?>
<!DOCTYPE svg PUBLIC "-//W3C//DTD SVG 20010904//EN"
 "http://www.w3.org/TR/2001/REC-SVG-20010904/DTD/svg10.dtd">
<svg version="1.0" xmlns="http://www.w3.org/2000/svg"
 width="512.000000pt" height="512.000000pt" viewBox="0 0 512.000000 512.000000"
 preserveAspectRatio="xMidYMid meet">
<metadata>
Created by potrace 1.15, written by Peter Selinger 2001-2017
</metadata>
<g transform="translate(0.000000,512.000000) scale(0.100000,-0.100000)"
fill="#000000" stroke="none">
<path d="M2450 5033 c-46 -65 -377 -402 -1252 -1278 -997 -999 -1188 -1195
-1188 -1218 0 -15 3 -27 7 -27 4 0 489 480 1076 1068 l1069 1067 -177 -240
-177 -240 -899 -900 c-752 -753 -899 -905 -899 -928 0 -15 3 -27 7 -27 4 0
358 350 786 778 687 685 771 766 708 680 -62 -85 -70 -101 -64 -129 6 -30 -14
-51 -700 -737 -389 -389 -714 -717 -723 -730 -8 -12 -14 -32 -12 -45 4 -18
119 92 682 653 373 371 676 668 673 659 -3 -10 -11 -46 -18 -80 l-12 -64 -663
-665 c-552 -553 -664 -670 -664 -693 0 -15 3 -27 7 -27 4 0 297 289 652 642
418 418 641 634 637 618 -3 -14 -11 -50 -17 -80 l-12 -55 -633 -635 c-527
-528 -634 -640 -634 -663 0 -15 3 -27 7 -27 4 0 284 276 621 613 409 407 612
604 609 587 -4 -14 -11 -50 -18 -80 l-11 -55 -604 -605 c-502 -503 -604 -610
-604 -633 0 -15 3 -27 7 -27 4 0 270 262 590 582 321 321 583 577 583 570 0
-7 -7 -43 -16 -80 l-17 -67 -573 -575 c-476 -478 -574 -580 -574 -603 0 -15 3
-27 7 -27 4 0 258 250 564 556 l557 557 -20 -84 -19 -84 -545 -545 c-451 -452
-544 -550 -544 -573 0 -15 3 -27 7 -27 4 0 245 237 535 527 290 290 525 518
523 507 -3 -10 -12 -48 -20 -84 l-16 -65 -515 -515 c-425 -427 -514 -520 -514
-543 0 -15 3 -27 7 -27 4 0 232 224 507 497 274 274 496 491 493 482 -3 -10
-11 -46 -18 -80 l-12 -64 -488 -491 c-403 -404 -489 -495 -489 -517 0 -15 3
-27 7 -27 4 0 218 210 476 468 368 367 467 461 462 437 -33 -146 10 -94 -490
-595 -375 -376 -455 -461 -455 -483 0 -15 3 -27 7 -27 4 0 205 197 446 437
295 294 437 430 434 413 -4 -14 -11 -50 -18 -80 l-11 -55 -429 -430 c-356
-358 -429 -436 -429 -458 0 -23 3 -26 18 -18 9 5 195 188 412 405 217 218 400
396 407 396 6 0 14 8 17 18 3 9 47 58 97 107 50 50 86 79 79 65 -7 -14 -42
-77 -78 -140 l-65 -115 -443 -445 c-369 -370 -444 -451 -444 -473 0 -23 3 -26
18 -18 9 5 219 213 467 460 l450 451 64 0 65 0 -34 -35 c-30 -31 -39 -34 -99
-37 l-66 -3 38 -24 39 -24 -446 -446 c-245 -246 -446 -450 -446 -454 0 -4 12
-7 27 -7 22 0 105 77 469 441 l442 441 40 -24 41 -24 -400 -400 c-220 -219
-405 -407 -410 -417 -8 -14 -5 -17 18 -17 22 0 97 69 432 404 l406 404 30 -19
c17 -10 35 -21 40 -23 6 -2 -158 -172 -363 -378 -204 -205 -372 -377 -372
-381 0 -4 12 -7 27 -7 22 0 93 66 394 366 l366 366 43 -22 43 -22 -337 -337
c-185 -185 -336 -340 -336 -344 0 -4 12 -7 27 -7 22 0 88 61 358 330 l330 330
35 -21 c19 -12 37 -23 39 -25 3 -3 -129 -139 -292 -302 -163 -164 -297 -301
-297 -305 0 -4 12 -7 27 -7 22 0 81 55 318 290 160 159 295 290 299 290 5 0
24 -10 43 -21 l35 -22 -261 -261 c-144 -144 -261 -265 -261 -269 0 -4 12 -7
27 -7 21 0 76 50 284 256 l257 256 41 -24 40 -24 -215 -215 c-118 -117 -220
-222 -225 -231 -8 -15 -5 -18 17 -18 22 0 70 43 248 219 l221 219 30 -19 c17
-10 35 -21 40 -23 6 -2 -74 -89 -177 -193 -104 -104 -188 -192 -188 -196 0 -4
12 -7 26 -7 21 0 65 38 210 181 l182 181 41 -23 41 -23 -150 -151 c-82 -83
-150 -155 -150 -158 0 -4 12 -7 26 -7 20 0 59 33 173 145 l147 144 34 -20 c19
-12 37 -23 39 -25 3 -2 -46 -55 -107 -118 -62 -62 -112 -116 -112 -119 0 -4
12 -7 26 -7 19 0 53 27 133 105 59 58 111 105 116 105 4 0 23 -10 42 -21 l34
-21 -75 -78 c-42 -43 -76 -80 -76 -84 0 -3 11 -6 25 -6 17 0 48 22 100 71 l74
71 40 -24 41 -24 -31 -30 c-17 -16 -35 -37 -40 -46 -17 -32 34 -21 76 15 l39
34 43 -25 c24 -13 41 -28 37 -33 -3 -5 8 -9 25 -9 16 0 31 3 33 8 2 4 31 34
65 66 l62 59 -20 -63 c-21 -68 -19 -81 11 -62 24 15 33 15 25 2 -4 -6 5 -10
19 -10 18 0 47 20 94 64 56 53 234 170 347 228 11 6 -44 -55 -122 -134 -79
-80 -143 -148 -143 -151 0 -4 12 -7 27 -7 21 0 69 43 237 209 223 221 199 202
476 364 19 11 -94 -110 -252 -269 -159 -160 -288 -293 -288 -297 0 -4 12 -7
27 -7 22 0 92 64 382 354 l356 353 125 73 c69 40 136 80 150 88 14 9 -171
-182 -410 -423 -365 -368 -431 -439 -413 -443 13 -2 35 6 50 17 16 11 425 417
911 903 743 744 882 888 882 911 0 23 -3 26 -17 18 -10 -5 -216 -208 -458
-450 l-440 -441 -64 0 -65 0 34 35 c29 30 40 35 82 35 26 0 48 2 48 5 0 3 -7
17 -17 31 -16 24 -15 26 10 52 15 15 27 21 27 14 0 -6 4 -12 10 -12 5 0 7 7 3
16 -4 11 114 136 421 443 351 352 426 432 426 454 0 15 -3 27 -7 27 -4 0 -198
-190 -430 -422 -232 -232 -424 -420 -427 -418 -2 3 -8 25 -13 50 l-10 45 444
445 c365 367 443 451 443 473 0 15 -3 27 -7 27 -4 0 -206 -199 -449 -441
l-442 -442 -11 39 c-6 21 -11 46 -11 54 0 8 207 222 460 475 380 380 460 466
460 488 0 15 -3 27 -7 27 -4 0 -215 -208 -469 -461 l-462 -462 -11 54 -12 53
481 481 c397 397 480 486 480 508 0 15 -3 27 -7 27 -4 0 -222 -215 -485 -477
-262 -262 -479 -475 -481 -473 -2 3 -9 25 -15 50 l-11 45 499 500 c414 414
500 506 500 528 0 15 -3 27 -7 27 -4 0 -231 -223 -504 -496 -273 -273 -499
-492 -502 -488 -2 5 -8 29 -12 53 l-7 43 516 517 c427 428 516 521 516 544 0
15 -3 27 -7 27 -4 0 -240 -232 -524 -516 l-516 -516 -13 52 -12 52 536 537
c448 448 536 541 536 564 0 23 -3 26 -17 18 -10 -5 -254 -246 -543 -535 l-525
-526 -12 53 -12 52 555 555 c463 464 554 560 554 583 0 23 -3 26 -17 18 -10
-5 -261 -253 -557 -550 -297 -297 -543 -538 -547 -535 -4 2 -11 25 -15 50 l-7
46 572 572 c474 474 571 576 571 599 0 15 -3 27 -7 27 -4 0 -265 -257 -579
-571 l-571 -571 -13 52 -13 52 592 592 c491 491 591 596 591 619 0 15 -3 27
-7 27 -4 0 -274 -266 -599 -591 l-591 -591 -11 54 -11 53 610 610 c506 507
609 615 609 638 0 15 -3 27 -7 27 -4 0 -281 -273 -615 -607 -397 -397 -609
-602 -612 -592 -3 7 -9 30 -14 49 l-9 35 628 630 c523 524 629 635 629 658 0
15 -3 27 -7 27 -4 0 -290 -282 -634 -626 -493 -493 -628 -623 -632 -608 -3 11
-9 34 -12 53 -7 33 -6 35 639 680 538 538 646 651 646 674 0 15 -3 27 -7 27
-4 0 -298 -290 -653 -646 l-646 -645 -12 52 -13 53 666 666 c554 554 665 670
665 693 0 15 -3 27 -7 27 -4 0 -306 -298 -670 -662 -364 -364 -664 -660 -666
-658 -2 3 -8 25 -14 50 l-10 45 684 685 c569 571 683 690 683 713 0 15 -3 27
-7 27 -4 0 -315 -307 -690 -682 -679 -679 -683 -682 -689 -650 -4 18 -9 32
-13 32 -3 0 -14 -29 -25 -64 -14 -51 -28 -73 -67 -112 -27 -26 -49 -46 -49
-44 0 3 13 45 29 94 l28 88 742 742 c618 619 741 746 741 769 0 15 -3 27 -7
27 -4 0 -330 -322 -724 -716 -576 -576 -715 -710 -712 -687 3 19 -1 34 -11 42
-9 8 -16 19 -16 25 0 6 302 313 671 681 368 369 675 678 680 688 8 14 5 17
-18 17 -23 0 -135 -108 -699 -671 l-671 -670 -28 36 -28 37 627 627 c344 344
626 630 626 634 0 4 -12 7 -27 7 -23 0 -131 -104 -641 -612 l-613 -613 -25 30
c-13 17 -24 35 -24 40 0 6 250 260 556 565 305 305 560 563 565 573 8 14 5 17
-18 17 -23 0 -119 -91 -583 -556 l-557 -555 -28 36 -28 37 512 512 c281 281
511 515 511 519 0 4 -12 7 -27 7 -22 0 -113 -86 -526 -497 l-498 -498 -29 35
-29 35 454 455 c250 251 455 459 455 463 0 4 -12 7 -27 7 -22 0 -105 -77 -468
-441 l-442 -440 -28 36 -28 37 397 397 c218 218 396 400 396 404 0 4 -12 7
-27 7 -22 0 -96 -69 -410 -382 l-384 -383 -29 35 -29 35 339 340 c187 188 340
344 340 348 0 4 -12 7 -27 7 -22 0 -87 -60 -354 -326 l-327 -326 -27 37 -28
36 281 283 c155 155 282 285 282 289 0 4 -12 7 -27 7 -21 0 -78 -51 -295 -267
l-269 -268 -29 35 -29 35 225 225 c123 125 224 229 224 233 0 4 -12 7 -27 7
-21 0 -69 -43 -238 -211 l-213 -211 -27 37 -28 36 166 168 c92 92 167 170 167
174 0 4 -12 7 -26 7 -21 0 -61 -34 -183 -154 l-156 -155 -27 38 -27 38 100 99
c119 118 131 134 94 134 -19 0 -52 -25 -125 -96 l-98 -95 -27 36 -28 35 52 55
c28 29 51 56 51 59 0 3 -11 6 -24 6 -13 0 -42 -17 -67 -39 l-43 -38 -33 42
c-26 35 -37 42 -58 38 -14 -3 -28 -9 -31 -14 -8 -14 -24 -10 -24 6 0 29 -17
14 -80 -72z m170 -1016 c13 -26 12 -30 -12 -54 -26 -25 -26 -25 -33 -4 -3 11
-9 21 -13 21 -4 0 -25 -34 -47 -75 -28 -54 -64 -99 -124 -158 -65 -63 -80 -74
-64 -47 10 19 46 82 78 140 66 119 186 255 195 223 3 -10 12 -31 20 -46z
m-262 -389 c-8 -13 -45 -78 -83 -144 -55 -99 -83 -138 -152 -205 l-84 -84 81
145 c67 119 96 160 163 228 45 45 83 82 85 82 3 0 -2 -10 -10 -22z m-330 -580
c-67 -120 -94 -157 -165 -228 -80 -80 -84 -82 -60 -40 119 215 142 249 220
328 45 45 82 82 84 82 1 0 -35 -64 -79 -142z m-218 -384 c-25 -43 -31 -63 -27
-89 4 -26 0 -38 -18 -55 -13 -12 -28 -19 -34 -16 -5 4 -21 -13 -35 -36 -26
-44 -197 -219 -178 -183 78 153 161 278 235 353 45 45 83 82 85 82 2 0 -11
-25 -28 -56z m-312 -546 c-68 -121 -94 -157 -170 -233 l-89 -90 82 145 c68
120 97 160 168 233 47 48 86 87 88 87 1 0 -35 -64 -79 -142z m-191 -335 c-123
-226 -160 -282 -243 -363 -65 -63 -82 -76 -67 -50 11 19 49 85 83 145 46 81
83 131 143 193 77 77 94 92 84 75z m1677 -570 c-13 -43 -24 -82 -24 -87 0 -4
-35 -44 -77 -87 l-76 -79 -66 0 -65 0 34 35 c29 30 40 34 93 37 l61 3 24 80
c19 66 32 89 70 128 25 26 47 47 48 47 2 0 -8 -35 -22 -77z m-544 -218 c-31
-32 -39 -35 -92 -35 -32 0 -58 -3 -58 -6 0 -4 5 -24 12 -45 10 -36 9 -41 -13
-65 l-24 -25 -16 48 -17 48 56 58 56 57 65 0 65 0 -34 -35z m600 0 c-30 -31
-40 -35 -85 -35 l-51 0 -21 -72 c-18 -61 -30 -81 -72 -123 l-51 -49 31 94 c28
85 38 101 92 158 l61 62 65 0 65 0 -34 -35z"/>
<path d="M203 4958 c-174 -172 -196 -198 -191 -231 3 -19 32 5 192 163 103
102 192 193 197 203 8 14 5 17 -17 17 -21 0 -60 -33 -181 -152z"/>
<path d="M303 4858 c-140 -139 -264 -265 -275 -281 -10 -15 -18 -37 -16 -50 3
-18 49 23 292 263 158 157 292 293 297 303 8 14 5 17 -17 17 -22 0 -75 -47
-281 -252z"/>
<path d="M402 4758 c-194 -194 -362 -365 -373 -381 -11 -15 -19 -37 -17 -50 4
-18 67 40 392 363 213 212 392 393 397 403 8 14 5 17 -18 17 -22 0 -89 -62
-381 -352z"/>
<path d="M502 4658 c-249 -249 -462 -465 -473 -481 -11 -15 -19 -37 -17 -50 4
-18 84 57 492 463 268 267 492 493 497 503 8 14 5 17 -18 17 -22 0 -104 -76
-481 -452z"/>
<path d="M602 4558 c-304 -304 -562 -565 -573 -581 -11 -15 -19 -37 -17 -50 4
-18 101 75 592 563 323 322 592 593 597 603 8 14 5 17 -18 17 -23 0 -118 -91
-581 -552z"/>
<path d="M702 4458 c-359 -359 -662 -665 -673 -681 -11 -15 -19 -37 -17 -50 4
-18 118 92 692 663 378 377 692 693 697 703 8 14 5 17 -18 17 -23 0 -133 -106
-681 -652z"/>
<path d="M802 4358 c-414 -414 -762 -765 -773 -781 -11 -15 -19 -37 -17 -50 4
-18 136 109 792 763 433 432 792 793 797 803 8 14 5 17 -18 17 -23 0 -148
-120 -781 -752z"/>
<path d="M902 4258 c-469 -469 -862 -865 -873 -881 -11 -15 -19 -37 -17 -50 4
-18 153 126 892 863 488 487 892 893 897 903 8 14 5 17 -18 17 -23 0 -162
-135 -881 -852z"/>
<path d="M1002 4158 c-524 -524 -962 -965 -973 -981 -11 -15 -19 -37 -17 -50
4 -18 170 144 992 963 543 542 992 993 997 1003 8 14 5 17 -18 17 -23 0 -177
-149 -981 -952z"/>
<path d="M1102 4058 c-579 -579 -1062 -1065 -1073 -1081 -11 -15 -19 -37 -17
-50 4 -18 188 161 1092 1063 598 597 1092 1093 1097 1103 8 14 5 17 -18 17
-23 0 -191 -164 -1081 -1052z"/>
<path d="M1202 3958 c-634 -634 -1162 -1165 -1173 -1181 -11 -15 -19 -37 -17
-50 4 -18 205 178 1192 1163 653 652 1192 1193 1197 1203 8 14 5 17 -18 17
-23 0 -206 -178 -1181 -1152z"/>
<path d="M4296 850 c-449 -448 -822 -823 -827 -832 -8 -15 -5 -18 18 -18 23 0
152 124 811 783 431 430 792 794 803 810 11 15 19 37 17 50 -4 18 -141 -114
-822 -793z"/>
<path d="M4396 750 c-394 -393 -722 -723 -727 -732 -8 -15 -5 -18 18 -18 23 0
137 110 711 683 376 375 692 694 703 710 11 15 19 37 17 50 -4 18 -124 -97
-722 -693z"/>
<path d="M4496 650 c-339 -338 -622 -623 -627 -632 -8 -15 -5 -18 18 -18 23 0
123 95 611 583 321 320 592 594 603 610 11 15 19 37 17 50 -4 18 -106 -80
-622 -593z"/>
<path d="M4596 550 c-284 -283 -522 -523 -527 -533 -8 -14 -5 -17 18 -17 23 0
108 81 511 483 266 265 492 494 503 510 11 15 19 37 17 50 -4 18 -89 -62 -522
-493z"/>
<path d="M4696 450 c-229 -228 -422 -423 -427 -432 -8 -15 -5 -18 18 -18 22 0
93 66 411 383 211 210 392 394 403 410 11 15 19 37 17 50 -4 18 -72 -45 -422
-393z"/>
<path d="M4796 350 c-174 -173 -322 -323 -327 -332 -8 -15 -5 -18 17 -18 23 0
80 52 312 282 156 156 293 295 303 311 11 15 19 37 17 50 -4 18 -54 -28 -322
-293z"/>
<path d="M4896 250 c-119 -118 -222 -223 -227 -232 -8 -15 -5 -18 17 -18 21 0
65 37 211 183 205 202 226 227 221 260 -3 19 -37 -11 -222 -193z"/>
<path d="M4996 150 c-136 -133 -149 -150 -111 -150 18 0 49 23 111 82 102 98
127 130 122 161 -3 19 -19 7 -122 -93z"/>
</g>
</svg>
